<?xml version="1.0" standalone="no"?>
<!DOCTYPE svg PUBLIC "-//W3C//DTD SVG 20010904//EN"
 "http://www.w3.org/TR/2001/REC-SVG-20010904/DTD/svg10.dtd">
<svg version="1.0" xmlns="http://www.w3.org/2000/svg"
 width="1024.000000pt" height="1024.000000pt" viewBox="0 0 1024.000000 1024.000000"
 preserveAspectRatio="xMidYMid meet">
<metadata>
Created by potrace 1.14, written by Peter Selinger 2001-2017
</metadata>
<g transform="translate(0.000000,1024.000000) scale(0.100000,-0.100000)"
fill="#000000" stroke="none">
<path d="M2517 10233 c-1 -1 -38 -3 -83 -4 -84 -2 -296 -35 -400 -63 -110 -29
-292 -100 -306 -121 -4 -5 -8 -6 -8 -2 0 12 -221 -115 -260 -150 -8 -8 -37
-30 -65 -51 -97 -72 -288 -261 -351 -347 -10 -15 -34 -47 -51 -70 -54 -72
-138 -215 -176 -300 -41 -92 -95 -238 -102 -275 -3 -14 -11 -50 -19 -80 -8
-30 -17 -75 -21 -100 -4 -25 -9 -58 -12 -75 -16 -95 -18 -531 -17 -3542 1
-3034 3 -3317 18 -3413 72 -452 247 -790 570 -1099 38 -36 79 -75 90 -87 69
-68 287 -210 415 -271 149 -69 346 -131 476 -148 28 -4 61 -9 75 -11 84 -16
539 -18 3560 -18 3177 0 3348 1 3400 18 95 30 155 69 219 140 14 16 32 35 39
42 27 28 73 148 80 208 12 95 6 454 -7 506 -16 59 -52 140 -63 140 -4 0 -8 6
-8 13 0 6 -23 36 -50 65 -28 28 -49 52 -46 52 3 0 1 12 -4 27 -16 48 -39 233
-46 368 -12 239 -6 715 11 835 2 14 6 48 10 75 17 137 25 158 80 216 59 62 96
128 116 209 20 83 20 6881 0 6955 -44 160 -173 293 -331 342 -51 15 -294 17
-3393 17 -1836 1 -3339 0 -3340 -1z m5105 -2567 c9 -4 25 -20 35 -34 16 -24
18 -55 20 -262 1 -216 0 -238 -18 -277 -19 -38 -24 -43 -67 -49 -60 -9 -4255
-10 -4303 0 -20 3 -47 18 -60 32 -24 26 -24 26 -25 269 -1 270 3 296 56 319
25 10 437 12 2188 11 1186 0 2165 -4 2174 -9z m5 -1284 c47 -26 50 -50 49
-314 l-1 -248 -28 -27 -27 -28 -2156 -3 c-1442 -1 -2169 1 -2194 8 -62 17 -68
44 -66 320 1 209 3 239 19 263 10 16 28 32 39 36 12 4 994 7 2182 7 1736 -1
2165 -4 2183 -14z m-2043 -921 c35 -34 49 -56 49 -76 0 -23 -52 -79 -299 -327
-165 -165 -309 -304 -322 -309 -15 -6 -31 -5 -44 2 -30 16 -343 329 -357 357
-17 32 2 63 76 124 23 18 39 24 55 20 13 -3 74 -57 137 -119 l113 -114 246
245 c195 196 251 246 271 246 17 -1 43 -17 75 -49z m2667 -2900 c4 -1 5 -18 4
-38 -2 -21 -6 -81 -10 -133 -14 -184 -20 -614 -11 -760 8 -126 18 -287 21
-316 l2 -31 -2891 1 c-2687 2 -2895 3 -2952 19 -126 35 -209 83 -298 171 -156
157 -220 357 -179 571 15 85 34 130 89 215 109 170 283 281 467 296 40 4 73 7
74 8 2 1 5674 -2 5684 -3z"/>
</g>
</svg>
